# xmcd
#
# Track frame offsets:
# 150
# 22229
# 44993
# 67528
# 85604
# 108558
# 124306
# 145889
# 159567
# 181685
# 200729
# 220925
#
# Disc length: 3209 seconds
#
#
# Revision: 0
# Processed by: cddbd v1.5.1PL0 Copyright (c) Steve Scherf et al.
# Submitted via: FreeRIP 2.931 
#
DISCID=af0c870c
DTITLE=Mara Lima - Unção Divina
DYEAR=1900
DGENRE=Gospel
TTITLE0=Unção Divina
TTITLE1=Semente do Sangue
TTITLE2=Voa Andorinha
TTITLE3=Estou na Benção
TTITLE4=Labaredas
TTITLE5=Menor dos Menores
TTITLE6=Não Foi Por Acaso
TTITLE7=Fogo Santo
TTITLE8=Pó da Estrada
TTITLE9=Sobe Glória e desce Glória
TTITLE10=Minha Outra Metade
TTITLE11=Não Fuja da Verdade
EXTD=
EXTT0=
EXTT1=
EXTT2=
EXTT3=
EXTT4=
EXTT5=
EXTT6=
EXTT7=
EXTT8=
EXTT9=
EXTT10=
EXTT11=
PLAYORDER=
